<svg width="64" height="64" viewBox="0 0 64 64" fill="none" xmlns="http://www.w3.org/2000/svg">
<path d="M32 0C49.6731 0 64 14.3269 64 32C64 49.6731 49.6731 64 32 64C14.3269 64 0 49.6731 0 32C0 14.3269 14.3269 0 32 0Z" fill="#4F46E5" fill-opacity="0.1"/>
<path d="M32 0C49.6731 0 64 14.3269 64 32C64 49.6731 49.6731 64 32 64C14.3269 64 0 49.6731 0 32C0 14.3269 14.3269 0 32 0Z" stroke="#E5E7EB"/>
<path d="M47 48H17V16H47V48Z" stroke="#E5E7EB"/>
<g clip-path="url(#clip0_31_147)">
<path d="M32.3265 20.5066C31.947 20.4949 31.5701 20.5488 31.2101 20.6643L17.9206 25.0023C17.4704 25.1524 17.1622 25.5649 17.1475 26.0381C17.1328 26.5114 17.4149 26.9422 17.8549 27.12L20.5372 28.1835C19.7313 29.3684 19.2512 30.7839 19.2045 32.2878L19.1636 33.6044C19.1223 34.935 18.5736 36.292 18.0012 37.3576C17.6778 37.9572 17.3124 38.5462 16.8923 39.0865C16.7361 39.2833 16.6858 39.5444 16.7627 39.786C16.8397 40.0275 17.0309 40.2117 17.2726 40.2801L20.2479 41.1229C20.4431 41.1806 20.6551 41.1496 20.8318 41.0472C21.0085 40.9449 21.1358 40.7706 21.1796 40.5703C21.6448 38.5775 21.4992 36.7721 21.2394 35.4744C21.1101 34.8044 20.9297 34.1188 20.668 33.487L20.7038 32.3344C20.7477 30.9194 21.2671 29.599 22.1295 28.5565C22.7565 27.8491 23.5571 27.2877 24.4866 26.9555L31.9322 24.2931C32.3211 24.1551 32.751 24.3561 32.889 24.7449C33.027 25.1337 32.826 25.5637 32.4372 25.7017L24.9916 28.364C24.4035 28.5755 23.8819 28.9111 23.4515 29.3292L30.8453 32.2601C31.1975 32.3976 31.5703 32.4749 31.9498 32.4867C32.3293 32.4985 32.7061 32.4445 33.0661 32.3291L46.3599 28.0052C46.8099 27.8598 47.1183 27.4426 47.133 26.9694C47.1477 26.4962 46.8656 26.0653 46.4256 25.8875L33.4309 20.7332C33.0788 20.5957 32.706 20.5184 32.3265 20.5066ZM22.7837 37.8438C22.7324 39.4977 26.7083 41.3423 31.6746 41.4965C36.641 41.6508 40.7237 40.0564 40.7751 38.4025L40.2698 31.5679L33.5326 33.7692C33.0067 33.9405 32.4556 34.0172 31.9074 34.0001C31.3593 33.9831 30.8093 33.8722 30.2998 33.6688L23.7121 31.0537L22.7837 37.8438Z" fill="#4F46E5"/>
</g>
<defs>
<clipPath id="clip0_31_147">
<path d="M17.3799 18.541L47.3654 19.4722L46.6204 43.4607L16.6349 42.5294L17.3799 18.541Z" fill="white"/>
</clipPath>
</defs>
</svg>
