<svg width="64" height="64" viewBox="0 0 64 64" fill="none" xmlns="http://www.w3.org/2000/svg">
<path d="M32 0C49.6731 0 64 14.3269 64 32C64 49.6731 49.6731 64 32 64C14.3269 64 0 49.6731 0 32C0 14.3269 14.3269 0 32 0Z" fill="#10B981" fill-opacity="0.1"/>
<path d="M32 0C49.6731 0 64 14.3269 64 32C64 49.6731 49.6731 64 32 64C14.3269 64 0 49.6731 0 32C0 14.3269 14.3269 0 32 0Z" stroke="#E5E7EB"/>
<path d="M42.5 48H21.5V16H42.5V48Z" stroke="#E5E7EB"/>
<g clip-path="url(#clip0_15_4075)">
<path d="M27.5 19C28.3297 19 29 19.6703 29 20.5V22H35V20.5C35 19.6703 35.6703 19 36.5 19C37.3297 19 38 19.6703 38 20.5V22H40.25C41.4922 22 42.5 23.0078 42.5 24.25V26.5H21.5V24.25C21.5 23.0078 22.5078 22 23.75 22H26V20.5C26 19.6703 26.6703 19 27.5 19ZM21.5 28H42.5V40.75C42.5 41.9922 41.4922 43 40.25 43H23.75C22.5078 43 21.5 41.9922 21.5 40.75V28ZM24.5 31.75V33.25C24.5 33.6625 24.8375 34 25.25 34H26.75C27.1625 34 27.5 33.6625 27.5 33.25V31.75C27.5 31.3375 27.1625 31 26.75 31H25.25C24.8375 31 24.5 31.3375 24.5 31.75ZM30.5 31.75V33.25C30.5 33.6625 30.8375 34 31.25 34H32.75C33.1625 34 33.5 33.6625 33.5 33.25V31.75C33.5 31.3375 33.1625 31 32.75 31H31.25C30.8375 31 30.5 31.3375 30.5 31.75ZM37.25 31C36.8375 31 36.5 31.3375 36.5 31.75V33.25C36.5 33.6625 36.8375 34 37.25 34H38.75C39.1625 34 39.5 33.6625 39.5 33.25V31.75C39.5 31.3375 39.1625 31 38.75 31H37.25ZM24.5 37.75V39.25C24.5 39.6625 24.8375 40 25.25 40H26.75C27.1625 40 27.5 39.6625 27.5 39.25V37.75C27.5 37.3375 27.1625 37 26.75 37H25.25C24.8375 37 24.5 37.3375 24.5 37.75ZM31.25 37C30.8375 37 30.5 37.3375 30.5 37.75V39.25C30.5 39.6625 30.8375 40 31.25 40H32.75C33.1625 40 33.5 39.6625 33.5 39.25V37.75C33.5 37.3375 33.1625 37 32.75 37H31.25ZM36.5 37.75V39.25C36.5 39.6625 36.8375 40 37.25 40H38.75C39.1625 40 39.5 39.6625 39.5 39.25V37.75C39.5 37.3375 39.1625 37 38.75 37H37.25C36.8375 37 36.5 37.3375 36.5 37.75Z" fill="#10B981"/>
</g>
<defs>
<clipPath id="clip0_15_4075">
<path d="M21.5 19H42.5V43H21.5V19Z" fill="white"/>
</clipPath>
</defs>
</svg>
