<svg width="27" height="30" viewBox="0 0 27 30" fill="none" xmlns="http://www.w3.org/2000/svg">
<g clip-path="url(#clip0_31_125)">
<path d="M13.3398 -0.654297L4.63281 8.92578C4.4043 9.17188 4.28125 9.5 4.28125 9.83398C4.28125 10.584 4.88477 11.1875 5.63477 11.1875H7.09375L2.79297 15.4883C2.54688 15.7344 2.40625 16.0742 2.40625 16.4258C2.40625 17.1582 2.99805 17.75 3.73047 17.75H5.6875L1.31641 22.9941C1.11133 23.2402 1 23.5508 1 23.873C1 24.6348 1.61523 25.25 2.37695 25.25H12.25V27.125C12.25 28.1621 13.0879 29 14.125 29C15.1621 29 16 28.1621 16 27.125V25.25H25.873C26.6348 25.25 27.25 24.6348 27.25 23.873C27.25 23.5508 27.1387 23.2402 26.9336 22.9941L22.5625 17.75H24.5195C25.252 17.75 25.8438 17.1582 25.8438 16.4258C25.8438 16.0742 25.7031 15.7344 25.457 15.4883L21.1562 11.1875H22.6152C23.3594 11.1875 23.9688 10.584 23.9688 9.83398C23.9688 9.5 23.8457 9.17188 23.6172 8.92578L14.9102 -0.654297C14.7109 -0.876953 14.4238 -1 14.125 -1C13.8262 -1 13.5391 -0.876953 13.3398 -0.654297Z" fill="white"/>
</g>
<defs>
<clipPath id="clip0_31_125">
<path d="M0 0H26.25V30H0V0Z" fill="white"/>
</clipPath>
</defs>
</svg>
