<svg width="27" height="30" viewBox="0 0 27 30" fill="none" xmlns="http://www.w3.org/2000/svg">
<path d="M26.25 30H0V0H26.25V30Z" stroke="#E5E7EB"/>
<path d="M6.73128 20.5364L5.40362 19.2087C5.0384 18.8435 4.9095 18.315 5.07278 17.8252C5.20167 17.4428 5.37354 16.9444 5.57978 16.373H1.03392C0.664411 16.373 0.320679 16.1754 0.135923 15.8531C-0.0488327 15.5309 -0.0445361 15.1356 0.144517 14.8177L2.40026 11.0152C2.95882 10.0743 3.96854 9.49853 5.05989 9.49853H8.59603C8.69915 9.32667 8.80227 9.1677 8.90539 9.01302C12.4243 3.82279 17.6663 3.65093 20.7942 4.22667C21.2926 4.3169 21.6793 4.70788 21.7739 5.20628C22.3496 8.33846 22.1734 13.576 16.9874 17.0948C16.837 17.1979 16.6737 17.3011 16.5019 17.4042V20.9402C16.5019 22.0316 15.9261 23.0455 14.9852 23.5998L11.1826 25.8555C10.8647 26.0445 10.4694 26.0488 10.1471 25.8641C9.82487 25.6793 9.62723 25.3399 9.62723 24.9661V20.3602C9.0214 20.5707 8.49291 20.7426 8.09332 20.8715C7.6121 21.0262 7.0879 20.893 6.72699 20.5364H6.73128ZM16.5019 11.2171C16.9577 11.2171 17.3948 11.0361 17.7171 10.7138C18.0395 10.3915 18.2205 9.95434 18.2205 9.49853C18.2205 9.04272 18.0395 8.60559 17.7171 8.28328C17.3948 7.96098 16.9577 7.77991 16.5019 7.77991C16.0461 7.77991 15.6089 7.96098 15.2866 8.28328C14.9643 8.60559 14.7832 9.04272 14.7832 9.49853C14.7832 9.95434 14.9643 10.3915 15.2866 10.7138C15.6089 11.0361 16.0461 11.2171 16.5019 11.2171Z" fill="white"/>
</svg>
