<svg width="23" height="18" viewBox="0 0 23 18" fill="none" xmlns="http://www.w3.org/2000/svg">
<path d="M12.3385 2.97321C12.7937 2.69196 13.0972 2.1817 13.0972 1.60714C13.0972 0.719196 12.3825 0 11.5 0C10.6175 0 9.90278 0.719196 9.90278 1.60714C9.90278 2.18571 10.2063 2.69196 10.6615 2.97321L8.37344 7.57768C8.01007 8.30893 7.06771 8.51786 6.43281 8.00759L2.875 5.14286C3.07465 4.87366 3.19444 4.54018 3.19444 4.17857C3.19444 3.29062 2.47969 2.57143 1.59722 2.57143C0.714757 2.57143 0 3.29062 0 4.17857C0 5.06652 0.714757 5.78571 1.59722 5.78571C1.60521 5.78571 1.61719 5.78571 1.62517 5.78571L3.45 15.8866C3.66962 17.108 4.72778 18 5.96562 18H17.0344C18.2682 18 19.3264 17.1121 19.55 15.8866L21.3748 5.78571C21.3828 5.78571 21.3948 5.78571 21.4028 5.78571C22.2852 5.78571 23 5.06652 23 4.17857C23 3.29062 22.2852 2.57143 21.4028 2.57143C20.5203 2.57143 19.8056 3.29062 19.8056 4.17857C19.8056 4.54018 19.9253 4.87366 20.125 5.14286L16.5672 8.00759C15.9323 8.51786 14.9899 8.30893 14.6266 7.57768L12.3385 2.97321Z" fill="white"/>
</svg>
